<?xml version="1.0" encoding="UTF-8"?>
<svg width="310px" height="310px" viewBox="0 0 310 310" version="1.1" xmlns="http://www.w3.org/2000/svg" xmlns:xlink="http://www.w3.org/1999/xlink">
    <!-- Generator: Sketch 53 (72520) - https://sketchapp.com -->
    <title>点击按钮 copy</title>
    <desc>Created with Sketch.</desc>
    <g id="页面-1" stroke="none" stroke-width="1" fill="none" fill-rule="evenodd">
        <g id="点击按钮-copy">
            <circle id="Oval" stroke="#FFBA15" stroke-width="10" fill-rule="nonzero" cx="155" cy="155" r="150"></circle>
            <path d="M172.639627,98.4439082 C167.967054,90.1642848 158.626131,85.10542 148.833355,85.10542 C144.162067,85.10542 139.490229,86.4878916 135.288787,88.7825373 C128.280203,92.4638181 123.609833,98.4439082 121.742934,105.80647 C120.181921,111.570962 120.902756,117.331833 123.358477,122.550903 C123.592941,123.04944 125.56468,127.56415 121.352772,129.440633 C116.10478,131.778905 113.802002,126.030162 113.802002,126.030162 C110.065999,116.368792 110.065999,106.724256 113.802002,97.9879116 C119.89109,84.1841947 133.419868,75 148.833355,75 C153.502991,75 158.64339,75.9214063 163.313025,77.7598745 C172.656886,81.4411553 180.128707,88.3433758 183.848919,97.5268464 C188.05036,106.723532 188.05036,116.833296 183.848919,126.030162 C183.848919,126.030162 181.617012,130.733679 177.077002,129.123843 C171.844249,127.268359 173.936248,122.857918 174.171447,122.257465 C177.235086,114.436192 176.72448,106.095925 172.639627,98.4439082 Z M209.369799,179.165732 C207.514275,194.578953 208.297464,189.105275 205.72853,210.66131 C203.159595,232.217344 166.577438,241.408547 149.398342,223.517521 C137.945611,211.59017 126.667564,199.918695 115.564201,188.503096 C113.70886,186.637093 110,182.435877 110,179.165732 C110,174.025358 113.28599,169.752831 118.11108,169.337654 C119.401015,169.226829 121.592101,169.356952 122.983926,170.287839 L135.503788,175.896322 L136.895795,175.896322 C139.678898,175.896322 141.531505,173.557984 141.531505,170.755213 L141.531505,113.805289 C141.531505,108.66859 145.240365,104 149.878992,104 C154.515613,104 158.688536,108.201216 158.688536,113.805289 L158.688536,146.017861 C158.688536,140.881714 162.860912,136.208897 167.497352,136.208897 C172.13616,136.208897 176.310542,140.413789 176.310542,146.017861 L176.310542,151.137284 C176.310542,146.000585 180.48146,141.331995 185.120086,141.331995 C189.757984,141.331995 193.928902,145.533211 193.928902,151.137284 L193.928902,152.072766 C195.32018,150.205661 197.639949,148.802621 200.422322,148.802621 C204.59324,148.802621 209.516734,152.571034 210.444496,157.23944 C211.368065,162.380734 211.063813,165.222283 210.09201,172.844102" id="Fill-1" fill="#FFBA15"></path>
        </g>
    </g>
</svg>
