<?xml version="1.0" standalone="no"?><!DOCTYPE svg PUBLIC "-//W3C//DTD SVG 1.1//EN" "http://www.w3.org/Graphics/SVG/1.1/DTD/svg11.dtd"><svg t="1568261497522" class="icon" viewBox="0 0 1024 1024" version="1.1" xmlns="http://www.w3.org/2000/svg" p-id="2014" xmlns:xlink="http://www.w3.org/1999/xlink" width="64" height="64"><defs><style type="text/css"></style></defs><path d="M926.0032 482.8672l-399.36-398.7968a30.72 30.72 0 0 0-43.4176 0l-399.36 398.7968a30.72 30.72 0 0 0 21.7088 52.48h44.3392v360.2432a30.72 30.72 0 0 0 30.72 30.72H829.44a30.72 30.72 0 0 0 30.72-30.72v-360.2432h44.3392a30.72 30.72 0 0 0 21.7088-52.48zM578.56 864.8704H431.2576v-162.6624a30.72 30.72 0 0 1 30.72-30.72H547.84a30.72 30.72 0 0 1 30.72 30.72z m250.88-390.9632a30.72 30.72 0 0 0-30.72 30.72v360.2432h-158.72v-162.6624a92.16 92.16 0 0 0-92.16-92.16H461.9776a92.16 92.16 0 0 0-92.16 92.16v162.6624h-158.72V504.6272a30.72 30.72 0 0 0-30.72-30.72h-0.8192l325.12-324.6592 325.1712 324.6592z" fill="#666666" p-id="2015"></path></svg>